REM DIRINDEX 1\2,1\3,1\4
REM DIRNAME cjc038,folder01,folder02,folder03
TITLE ""
FILE "DISC1Track08.mp3" MP3
  TRACK 01 AUDIO
    TITLE "0:"
    INDEX 01 00:00:00
  TRACK 02 AUDIO
    TITLE "4:cjc038_0116"
    INDEX 01 00:00:01
  TRACK 03 AUDIO
    TITLE "0:"
    INDEX 01 00:02:57
  TRACK 04 AUDIO
    TITLE "2:cjc038_0117"
    INDEX 01 00:04:29
  TRACK 05 AUDIO
    TITLE "0:"
    INDEX 01 00:06:06
  TRACK 06 AUDIO
    TITLE "3:cjc038_0118"
    INDEX 01 00:06:20
  TRACK 07 AUDIO
    TITLE "0:"
    INDEX 01 00:07:58
  TRACK 08 AUDIO
    TITLE "2:cjc038_0119"
    INDEX 01 00:08:42
  TRACK 09 AUDIO
    TITLE "0:"
    INDEX 01 00:11:07
  TRACK 10 AUDIO
    TITLE "3:cjc038_0120"
    INDEX 01 00:11:13
  TRACK 11 AUDIO
    TITLE "0:"
    INDEX 01 00:13:49
  TRACK 12 AUDIO
    TITLE "2:cjc038_0121"
    INDEX 01 00:14:23
  TRACK 13 AUDIO
    TITLE "0:"
    INDEX 01 00:16:40
  TRACK 14 AUDIO
    TITLE "3:cjc038_0122"
    INDEX 01 00:16:51
  TRACK 15 AUDIO
    TITLE "0:"
    INDEX 01 00:18:58
  TRACK 16 AUDIO
    TITLE "2:cjc038_0123"
    INDEX 01 00:19:42
  TRACK 17 AUDIO
    TITLE "0:"
    INDEX 01 00:21:53
  TRACK 18 AUDIO
    TITLE "3:cjc038_0124"
    INDEX 01 00:21:62
  TRACK 19 AUDIO
    TITLE "0:"
    INDEX 01 00:23:67
  TRACK 20 AUDIO
    TITLE "2:cjc038_0125"
    INDEX 01 00:25:45
  TRACK 21 AUDIO
    TITLE "0:"
    INDEX 01 00:27:57
  TRACK 22 AUDIO
    TITLE "3:cjc038_0126"
    INDEX 01 00:27:65
  TRACK 23 AUDIO
    TITLE "0:"
    INDEX 01 00:29:68
  TRACK 24 AUDIO
    TITLE "2:cjc038_0127"
    INDEX 01 00:30:52
  TRACK 25 AUDIO
    TITLE "0:"
    INDEX 01 00:32:54
  TRACK 26 AUDIO
    TITLE "3:cjc038_0128"
    INDEX 01 00:32:62
  TRACK 27 AUDIO
    TITLE "0:"
    INDEX 01 00:34:59
  TRACK 28 AUDIO
    TITLE "2:cjc038_0129"
    INDEX 01 00:36:38
  TRACK 29 AUDIO
    TITLE "0:"
    INDEX 01 00:39:21
  TRACK 30 AUDIO
    TITLE "3:cjc038_0130"
    INDEX 01 00:39:23
  TRACK 31 AUDIO
    TITLE "0:"
    INDEX 01 00:41:63
  TRACK 32 AUDIO
    TITLE "2:cjc038_0131"
    INDEX 01 00:42:57
  TRACK 33 AUDIO
    TITLE "0:"
    INDEX 01 00:45:08
  TRACK 34 AUDIO
    TITLE "3:cjc038_0132"
    INDEX 01 00:45:20
  TRACK 35 AUDIO
    TITLE "0:"
    INDEX 01 00:47:38
  TRACK 36 AUDIO
    TITLE "2:cjc038_0133"
    INDEX 01 00:48:12
  TRACK 37 AUDIO
    TITLE "0:"
    INDEX 01 00:53:23
  TRACK 38 AUDIO
    TITLE "3:cjc038_0134"
    INDEX 01 00:53:27
  TRACK 39 AUDIO
    TITLE "0:"
    INDEX 01 00:58:30
  TRACK 40 AUDIO
    TITLE "2:cjc038_0135"
    INDEX 01 00:59:08
  TRACK 41 AUDIO
    TITLE "0:"
    INDEX 01 01:02:30
  TRACK 42 AUDIO
    TITLE "3:cjc038_0136"
    INDEX 01 01:02:42
  TRACK 43 AUDIO
    TITLE "0:"
    INDEX 01 01:05:52
  TRACK 44 AUDIO
    TITLE "2:cjc038_0137"
    INDEX 01 01:06:32
  TRACK 45 AUDIO
    TITLE "0:"
    INDEX 01 01:10:08
  TRACK 46 AUDIO
    TITLE "3:cjc038_0138"
    INDEX 01 01:10:20
  TRACK 47 AUDIO
    TITLE "0:"
    INDEX 01 01:13:63
  TRACK 48 AUDIO
    TITLE "2:cjc038_0139"
    INDEX 01 01:14:41
  TRACK 49 AUDIO
    TITLE "0:"
    INDEX 01 01:17:69
  TRACK 50 AUDIO
    TITLE "3:cjc038_0140"
    INDEX 01 01:18:04
  TRACK 51 AUDIO
    TITLE "0:"
    INDEX 01 01:21:25
  TRACK 52 AUDIO
    TITLE "2:cjc038_0141"
    INDEX 01 01:22:07
  TRACK 53 AUDIO
    TITLE "0:"
    INDEX 01 01:23:52
  TRACK 54 AUDIO
    TITLE "3:cjc038_0142"
    INDEX 01 01:23:60
  TRACK 55 AUDIO
    TITLE "0:"
    INDEX 01 01:25:23
  TRACK 56 AUDIO
    TITLE "2:cjc038_0143"
    INDEX 01 01:26:03
  TRACK 57 AUDIO
    TITLE "0:"
    INDEX 01 01:29:62
  TRACK 58 AUDIO
    TITLE "3:cjc038_0144"
    INDEX 01 01:29:68
  TRACK 59 AUDIO
    TITLE "0:"
    INDEX 01 01:33:46
  TRACK 60 AUDIO
    TITLE "2:cjc038_0145"
    INDEX 01 01:34:20
  TRACK 61 AUDIO
    TITLE "0:"
    INDEX 01 01:37:07
  TRACK 62 AUDIO
    TITLE "3:cjc038_0146"
    INDEX 01 01:37:13
  TRACK 63 AUDIO
    TITLE "0:"
    INDEX 01 01:39:55
  TRACK 64 AUDIO
    TITLE "2:cjc038_0147"
    INDEX 01 01:40:44
  TRACK 65 AUDIO
    TITLE "0:"
    INDEX 01 01:44:40
  TRACK 66 AUDIO
    TITLE "3:cjc038_0148"
    INDEX 01 01:44:44
  TRACK 67 AUDIO
    TITLE "0:"
    INDEX 01 01:48:24
  TRACK 68 AUDIO
    TITLE "2:cjc038_0149"
    INDEX 01 01:50:13
  TRACK 69 AUDIO
    TITLE "0:"
    INDEX 01 01:53:21
  TRACK 70 AUDIO
    TITLE "3:cjc038_0150"
    INDEX 01 01:53:23
  TRACK 71 AUDIO
    TITLE "0:"
    INDEX 01 01:56:28
  TRACK 72 AUDIO
    TITLE "2:cjc038_0151"
    INDEX 01 01:57:09
  TRACK 73 AUDIO
    TITLE "0:"
    INDEX 01 02:00:35
  TRACK 74 AUDIO
    TITLE "3:cjc038_0152"
    INDEX 01 02:00:43
  TRACK 75 AUDIO
    TITLE "0:"
    INDEX 01 02:03:63
  TRACK 76 AUDIO
    TITLE "2:cjc038_0153"
    INDEX 01 02:04:41
  TRACK 77 AUDIO
    TITLE "0:"
    INDEX 01 02:07:51
  TRACK 78 AUDIO
    TITLE "3:cjc038_0154"
    INDEX 01 02:07:61
  TRACK 79 AUDIO
    TITLE "0:"
    INDEX 01 02:10:65
  TRACK 80 AUDIO
    TITLE "2:cjc038_0155"
    INDEX 01 02:11:41
  TRACK 81 AUDIO
    TITLE "0:"
    INDEX 01 02:15:66
  TRACK 82 AUDIO
    TITLE "3:cjc038_0156"
    INDEX 01 02:15:70
  TRACK 83 AUDIO
    TITLE "0:"
    INDEX 01 02:20:05
  TRACK 84 AUDIO
    TITLE "2:cjc038_0157"
    INDEX 01 02:20:61
  TRACK 85 AUDIO
    TITLE "0:"
    INDEX 01 02:24:22
  TRACK 86 AUDIO
    TITLE "3:cjc038_0158"
    INDEX 01 02:24:30
  TRACK 87 AUDIO
    TITLE "0:"
    INDEX 01 02:27:56
  TRACK 88 AUDIO
    TITLE "2:cjc038_0159"
    INDEX 01 02:28:35
  TRACK 89 AUDIO
    TITLE "0:"
    INDEX 01 02:32:71
  TRACK 90 AUDIO
    TITLE "3:cjc038_0160"
    INDEX 01 02:33:09
  TRACK 91 AUDIO
    TITLE "0:"
    INDEX 01 02:37:23
